<svg width="90" height="74" viewBox="0 0 98 88" fill="none" xmlns="http://www.w3.org/2000/svg">
<path d="M95.9512 13.6996C94.822 8.30435 91.506 4.06448 87.2869 2.62025C79.6476 7.84338e-07 49 0 49 0C49 0 18.3529 7.84338e-07 10.7132 2.62025C6.4941 4.06448 3.17848 8.30435 2.04907 13.6996C6.13362e-07 23.4687 0 43.8634 0 43.8634C0 43.8634 6.13362e-07 64.2581 2.04907 74.0273C3.17848 79.4225 6.4941 83.6624 10.7132 85.1063C18.3529 87.7267 49 87.7267 49 87.7267C49 87.7267 79.6476 87.7267 87.2869 85.1063C91.506 83.6624 94.822 79.4225 95.9512 74.0273C98.0004 64.2581 98.0004 43.8634 98.0004 43.8634C98.0004 43.8634 97.9921 23.4687 95.9512 13.6996Z" fill="#FF0000"/>
<path d="M39.1904 62.6606L64.6505 43.8651L39.1904 25.0693V62.6606Z" fill="white"/>
</svg>
